<svg width="65" height="38" viewBox="0 0 65 38" fill="none" xmlns="http://www.w3.org/2000/svg">
<path d="M64.5 36.59C62.172 37.182 60.732 36.616 59.44 34.676L50.252 21.964L48.924 20.204L38.194 34.718C36.968 36.464 35.682 37.224 33.394 36.606L47.134 18.162L34.342 1.50202C36.542 1.07402 38.062 1.29202 39.412 3.26202L48.942 16.132L58.542 3.33202C59.772 1.58602 61.094 0.922017 63.302 1.56602L58.342 8.14202L51.622 16.892C50.822 17.892 50.932 18.576 51.668 19.542L64.5 36.59ZM0.516 17.854L1.64 12.326C4.7 1.38602 17.24 -3.15998 25.888 3.60002C30.942 7.57602 32.198 13.2 31.948 19.5H3.46C3.032 30.84 11.194 37.684 21.6 34.192C25.25 32.966 27.4 30.108 28.476 26.532C29.022 24.74 29.926 24.46 31.61 24.972C30.75 29.444 28.81 33.18 24.71 35.518C18.584 39.018 9.84 37.886 5.24 33.022C2.5 30.2 1.368 26.624 0.86 22.8C0.78 22.168 0.62 21.566 0.5 20.96C0.510667 19.9254 0.516 18.8907 0.516 17.856V17.854ZM3.512 17.094H29.256C29.088 8.89402 23.982 3.07002 17.004 3.02002C9.344 2.96002 3.844 8.64602 3.512 17.094Z" fill="black"/>
</svg>
